classDiagram
    direction LR

    class ReprodutorMusical {
        <<Interface>>
        +tocar(): void
        +pausar(): void
        +selecionarMusica(musica: String): void
    }

    class AparelhoTelefonico {
        <<Interface>>
        +ligar(numero: String): void
        +atender(): void
        +iniciarCorreioVoz(): void
    }

    class NavegadorInternet {
        <<Interface>>
        +exibirPagina(url: String): void
        +adicionarNovaAba(): void
        +atualizarPagina(): void
    }

    class iPhone {
        +tocar(): void
        +pausar(): void
        +selecionarMusica(musica: String): void
        +ligar(numero: String): void
        +atender(): void
        +iniciarCorreioVoz(): void
        +exibirPagina(url: String): void
        +adicionarNovaAba(): void
        +atualizarPagina(): void
    }

    iPhone ..|> ReprodutorMusical
    iPhone ..|> AparelhoTelefonico
    iPhone ..|> NavegadorInternet